<svg xmlns="http://www.w3.org/2000/svg" width="728" height="502" viewBox="0 0 728 502">
<rect width="728" height="502" fill="#fbfcfd"/>
<rect x="18" y="18" width="56" height="56" fill="#c02b30" opacity="0.761"/>
<rect x="74" y="18" width="56" height="56" fill="#c02b30" opacity="0.845"/>
<rect x="130" y="18" width="56" height="56" fill="#c02b30" opacity="0.571"/>
<rect x="186" y="18" width="56" height="56" fill="#c02b30" opacity="0.332"/>
<rect x="242" y="18" width="56" height="56" fill="#c02b30" opacity="0.183"/>
<rect x="298" y="18" width="56" height="56" fill="#c02b30" opacity="0.123"/>
<rect x="354" y="18" width="56" height="56" fill="#c02b30" opacity="0.104"/>
<rect x="18" y="74" width="56" height="56" fill="#c02b30" opacity="0.845"/>
<rect x="74" y="74" width="56" height="56" fill="#c02b30" opacity="0.850"/>
<rect x="130" y="74" width="56" height="56" fill="#c02b30" opacity="0.560"/>
<rect x="186" y="74" width="56" height="56" fill="#c02b30" opacity="0.301"/>
<rect x="242" y="74" width="56" height="56" fill="#c02b30" opacity="0.167"/>
<rect x="298" y="74" width="56" height="56" fill="#c02b30" opacity="0.114"/>
<rect x="354" y="74" width="56" height="56" fill="#c02b30" opacity="0.102"/>
<rect x="18" y="130" width="56" height="56" fill="#c02b30" opacity="0.571"/>
<rect x="74" y="130" width="56" height="56" fill="#c02b30" opacity="0.560"/>
<rect x="130" y="130" width="56" height="56" fill="#c02b30" opacity="0.353"/>
<rect x="186" y="130" width="56" height="56" fill="#c02b30" opacity="0.204"/>
<rect x="242" y="130" width="56" height="56" fill="#c02b30" opacity="0.126"/>
<rect x="298" y="130" width="56" height="56" fill="#c02b30" opacity="0.105"/>
<rect x="18" y="186" width="56" height="56" fill="#c02b30" opacity="0.332"/>
<rect x="74" y="186" width="56" height="56" fill="#c02b30" opacity="0.301"/>
<rect x="130" y="186" width="56" height="56" fill="#c02b30" opacity="0.204"/>
<rect x="186" y="186" width="56" height="56" fill="#c02b30" opacity="0.132"/>
<rect x="242" y="186" width="56" height="56" fill="#c02b30" opacity="0.107"/>
<rect x="18" y="242" width="56" height="56" fill="#c02b30" opacity="0.183"/>
<rect x="74" y="242" width="56" height="56" fill="#c02b30" opacity="0.167"/>
<rect x="130" y="242" width="56" height="56" fill="#c02b30" opacity="0.126"/>
<rect x="186" y="242" width="56" height="56" fill="#c02b30" opacity="0.107"/>
<rect x="18" y="298" width="56" height="56" fill="#c02b30" opacity="0.123"/>
<rect x="74" y="298" width="56" height="56" fill="#c02b30" opacity="0.114"/>
<rect x="130" y="298" width="56" height="56" fill="#c02b30" opacity="0.105"/>
<rect x="18" y="354" width="56" height="56" fill="#c02b30" opacity="0.104"/>
<rect x="74" y="354" width="56" height="56" fill="#c02b30" opacity="0.102"/>
<line x1="18" y1="18" x2="410" y2="18" stroke="#c8ced6"/>
<line x1="18" y1="18" x2="18" y2="410" stroke="#c8ced6"/>
<line x1="18" y1="74" x2="410" y2="74" stroke="#c8ced6"/>
<line x1="74" y1="18" x2="74" y2="410" stroke="#c8ced6"/>
<line x1="18" y1="130" x2="410" y2="130" stroke="#c8ced6"/>
<line x1="130" y1="18" x2="130" y2="410" stroke="#c8ced6"/>
<line x1="18" y1="186" x2="410" y2="186" stroke="#c8ced6"/>
<line x1="186" y1="18" x2="186" y2="410" stroke="#c8ced6"/>
<line x1="18" y1="242" x2="410" y2="242" stroke="#c8ced6"/>
<line x1="242" y1="18" x2="242" y2="410" stroke="#c8ced6"/>
<line x1="18" y1="298" x2="410" y2="298" stroke="#c8ced6"/>
<line x1="298" y1="18" x2="298" y2="410" stroke="#c8ced6"/>
<line x1="18" y1="354" x2="410" y2="354" stroke="#c8ced6"/>
<line x1="354" y1="18" x2="354" y2="410" stroke="#c8ced6"/>
<line x1="18" y1="410" x2="410" y2="410" stroke="#c8ced6"/>
<line x1="410" y1="18" x2="410" y2="410" stroke="#c8ced6"/>
<circle cx="382" cy="382" r="18" fill="#1d7f5f"/>
<text x="372" y="387" font-family="Helvetica,Arial,sans-serif" font-size="13" font-weight="bold" fill="#ffffff">US</text>
<rect x="428" y="18" width="282" height="34" rx="6" fill="#7a8290"/>
<text x="442" y="41" font-family="Helvetica,Arial,sans-serif" font-size="16" font-weight="bold" fill="#ffffff">LOCKED</text>
<text x="428" y="80" font-family="Helvetica,Arial,sans-serif" font-size="13" font-weight="normal" fill="#101418">role: thief   sub-game 1   step 8</text>
<text x="428" y="102" font-family="Helvetica,Arial,sans-serif" font-size="13" font-weight="normal" fill="#101418">our cell: (6, 6)   barriers left: 0</text>
<text x="428" y="124" font-family="Helvetica,Arial,sans-serif" font-size="13" font-weight="normal" fill="#101418">tracking: fuzzy</text>
<text x="428" y="146" font-family="Helvetica,Arial,sans-serif" font-size="13" font-weight="normal" fill="#c02b30">belief peak: (1, 1) p=0.11</text>
<text x="428" y="176" font-family="Helvetica,Arial,sans-serif" font-size="13" font-weight="bold" fill="#5a6472">hints received</text>
<text x="428" y="198" font-family="Helvetica,Arial,sans-serif" font-size="12" font-weight="normal" fill="#101418">· Still on the move, same as every …</text>
<text x="428" y="218" font-family="Helvetica,Arial,sans-serif" font-size="12" font-weight="normal" fill="#101418">· The east docks of New York are co…</text>
<text x="428" y="238" font-family="Helvetica,Arial,sans-serif" font-size="12" font-weight="normal" fill="#101418">· One step at a time; New York rewa…</text>
<text x="428" y="258" font-family="Helvetica,Arial,sans-serif" font-size="12" font-weight="normal" fill="#101418">· Forget the center of New York; we…</text>
<text x="428" y="278" font-family="Helvetica,Arial,sans-serif" font-size="12" font-weight="normal" fill="#101418">· The east docks of New York are co…</text>
<text x="18" y="434" font-family="Helvetica,Arial,sans-serif" font-size="12" font-weight="normal" fill="#5a6472">Posterior from physics, barrier declarations and</text>
<text x="18" y="452" font-family="Helvetica,Arial,sans-serif" font-size="12" font-weight="normal" fill="#5a6472">liar-weighted hints.</text>
</svg>